<svg width="1904" height="288" viewBox="0 0 1904 288" fill="none" xmlns="http://www.w3.org/2000/svg">
<path fill-rule="evenodd" clip-rule="evenodd" d="M-568 108L-458.542 138C-349.083 168 -130.167 228 88.75 252C307.667 276 526.583 264 745.5 234C964.417 204 1183.33 156 1402.25 114C1621.17 72 1840.08 36 1949.54 18L2059 0V288H1949.54C1840.08 288 1621.17 288 1402.25 288C1183.33 288 964.417 288 745.5 288C526.583 288 307.667 288 88.75 288C-130.167 288 -349.083 288 -458.542 288H-568V108Z" fill="#FFF7E1"/>
</svg>
