<svg width="20" height="19" viewBox="0 0 20 19" fill="none" xmlns="http://www.w3.org/2000/svg">
<path d="M1.78094 16.0602C-0.0487085 12.8429 1.19633 7.79684 4.98139 4.02143C9.27972 -0.264162 15.2231 -1.28587 18.2576 1.73945C18.2611 1.74341 18.2641 1.7479 18.269 1.75192C17.6617 3.51381 15.7277 7.26265 9.93061 9.28945C4.62018 11.1471 2.57168 14.1005 1.78094 16.0602ZM19.1111 2.84081C18.6511 3.91077 17.8506 5.30904 16.4712 6.68435C15.0848 8.06746 13.1142 9.42587 10.323 10.4022C4.65805 12.3831 3.07524 15.6259 2.63362 17.1974C2.65448 17.2184 2.67243 17.2401 2.6927 17.2605C5.72689 20.2859 11.6705 19.2643 15.9685 14.978C19.793 11.1643 21.023 6.05278 19.1111 2.84081Z" fill="#505050"/>
</svg>
